<?xml version="1.0" standalone="no"?>
<!DOCTYPE svg PUBLIC "-//W3C//DTD SVG 20010904//EN"
 "http://www.w3.org/TR/2001/REC-SVG-20010904/DTD/svg10.dtd">
<svg version="1.0" xmlns="http://www.w3.org/2000/svg"
 width="149.000000pt" height="120.000000pt" viewBox="0 0 149.000000 120.000000"
 preserveAspectRatio="xMidYMid meet">

<g transform="translate(0.000000,120.000000) scale(0.100000,-0.100000)"
fill="#000000" stroke="none">
<path d="M1306 1110 c-36 -28 -66 -55 -66 -59 0 -5 13 -13 28 -19 28 -9 30 -8
70 59 23 38 40 69 38 69 -2 0 -33 -23 -70 -50z"/>
<path d="M91 1086 c23 -37 45 -69 49 -71 10 -6 60 15 60 24 -1 6 -127 104
-142 109 -4 2 10 -26 33 -62z"/>
<path d="M560 1040 c-90 -12 -194 -35 -262 -59 -54 -19 -78 -15 -63 9 11 17
-22 22 -51 7 l-27 -14 32 -11 c17 -6 31 -13 31 -16 0 -3 -21 -17 -47 -30 -83
-44 -82 -40 -28 -89 47 -42 48 -45 27 -51 -31 -10 -28 -26 10 -59 l33 -27 -37
-34 c-36 -31 -94 -56 -134 -56 -16 0 -17 -2 -4 -10 8 -5 38 -10 65 -10 44 0
71 5 162 25 17 4 20 1 16 -15 -3 -11 2 -32 12 -46 9 -14 15 -27 13 -29 -2 -2
-25 -10 -53 -18 -58 -17 -61 -32 -20 -97 28 -45 40 -45 50 0 6 29 25 42 25 18
0 -31 60 -136 95 -167 45 -39 121 -76 180 -87 l40 -8 -70 -12 c-111 -20 -143
-18 -147 9 -3 20 -8 22 -65 22 -36 0 -59 -3 -54 -8 5 -5 27 -8 49 -5 22 2 38
0 36 -4 -3 -5 -14 -8 -26 -8 -11 0 -22 -8 -25 -18 -4 -15 -21 -21 -96 -29 -51
-6 -101 -14 -112 -18 -18 -6 -18 -5 -3 7 9 7 25 18 35 24 16 10 12 14 -34 38
-29 14 -60 26 -70 25 -10 0 9 -13 41 -28 l60 -27 -48 -28 c-26 -15 -46 -30
-44 -32 3 -2 36 3 74 10 125 25 184 29 184 13 0 -37 131 -48 267 -22 97 19
175 19 278 0 96 -17 186 -19 238 -4 32 9 38 14 34 31 -5 19 -2 19 81 14 l87
-5 -83 12 c-61 9 -86 17 -93 30 -6 9 -20 18 -32 19 -12 1 7 5 43 8 l65 7 -80
-1 c-76 -1 -80 -2 -83 -25 -3 -22 -7 -23 -50 -17 -26 3 -81 9 -121 12 l-75 7
79 19 c133 31 232 111 258 206 6 23 14 42 17 42 3 0 12 -12 21 -26 l16 -25 32
36 c47 54 41 84 -22 100 -26 7 -50 14 -52 17 -3 3 2 19 12 36 22 39 12 51 -64
81 l-53 21 0 -140 0 -140 -40 -44 c-55 -60 -124 -88 -231 -94 -139 -8 -261 33
-317 106 -23 31 -25 42 -30 177 l-5 145 24 0 c54 0 52 15 -10 84 -34 36 -61
70 -61 75 0 10 110 45 194 61 130 26 396 5 510 -39 33 -13 39 -2 -52 -103 -23
-26 -42 -52 -42 -57 0 -11 69 -20 72 -10 4 11 98 -11 98 -22 0 -5 -4 -9 -10
-9 -5 0 -10 -4 -10 -9 0 -22 205 -54 265 -41 28 6 27 7 -27 23 -32 10 -74 32
-94 49 l-36 32 32 29 c24 21 29 32 21 40 -18 18 -14 23 39 57 28 18 50 35 50
40 0 4 -36 23 -81 43 -75 34 -94 57 -48 57 10 0 19 4 19 9 0 11 -25 21 -51 21
-16 0 -19 -5 -14 -20 8 -25 -12 -26 -70 -4 -135 49 -407 75 -565 54z m420 -30
c119 -27 205 -54 295 -95 l77 -36 -53 -38 -52 -38 -36 18 c-44 21 -215 73
-296 90 -33 7 -121 13 -195 13 -143 -1 -248 -19 -360 -65 -30 -12 -76 -30
-102 -39 l-46 -18 -46 38 c-34 28 -42 40 -33 48 56 45 261 114 387 131 47 6
99 13 115 15 61 9 263 -6 345 -24z m157 -176 c-3 -3 -12 -4 -19 -1 -8 3 -5 6
6 6 11 1 17 -2 13 -5z m-807 -14 c0 -5 -2 -10 -4 -10 -3 0 -8 5 -11 10 -3 6
-1 10 4 10 6 0 11 -4 11 -10z m882 -17 c24 -9 47 -19 51 -23 5 -4 -16 -28 -47
-53 l-56 -45 -46 14 c-26 8 -66 14 -88 14 l-41 1 52 49 c67 62 104 71 175 43z
m-852 -17 c44 -31 90 -72 90 -78 0 -5 -17 -8 -38 -8 -22 0 -60 -6 -85 -14
l-46 -14 -53 40 c-29 21 -54 43 -56 47 -1 5 19 18 45 29 50 22 112 21 143 -2z
m886 -107 c10 -12 37 -30 59 -40 l40 -19 -46 0 c-25 0 -69 7 -99 16 l-53 16
29 23 c36 30 46 31 70 4z m-981 -13 c19 -14 32 -27 27 -30 -12 -7 -183 -38
-188 -34 -2 3 13 12 34 21 21 9 49 28 62 42 13 14 25 25 26 25 2 0 19 -11 39
-24z m135 9 c0 -8 -11 -17 -25 -21 -14 -3 -25 -9 -25 -13 0 -4 11 -14 25 -21
22 -12 25 -20 25 -72 l0 -59 -31 18 c-40 23 -79 62 -79 79 0 7 12 22 26 33 22
17 24 22 10 27 -25 10 -19 23 17 33 47 13 57 13 57 -4z m726 -59 c18 -14 18
-17 4 -43 -12 -22 -24 -29 -53 -31 -35 -3 -37 -2 -37 27 0 20 8 35 22 45 28
20 39 20 64 2z m-46 -270 c0 -18 -124 -126 -145 -126 -14 0 -40 28 -33 35 8 9
38 -6 32 -16 -6 -11 -1 -11 20 -3 13 5 14 10 6 20 -7 7 -19 10 -27 7 -11 -4
-14 -2 -9 5 4 7 13 12 21 12 8 0 28 17 45 39 24 29 38 38 60 37 17 -1 30 -5
30 -10z m-631 -24 c31 -34 85 -67 124 -76 15 -3 27 -10 27 -15 0 -5 19 -7 42
-3 42 5 42 5 24 -13 -18 -18 -18 -19 0 -26 17 -7 18 -8 1 -8 -10 -1 -20 6 -24
15 -5 13 -7 13 -14 2 -7 -11 -11 -10 -19 2 -9 13 -11 13 -21 0 -9 -12 -10 -11
-6 8 6 26 -7 29 -23 5 -10 -16 -11 -15 -7 5 3 12 4 22 2 22 -2 0 -11 3 -21 7
-12 4 -15 3 -10 -5 5 -8 1 -10 -11 -5 -16 6 -16 5 -5 -10 11 -12 4 -11 -27 6
-22 12 -41 27 -41 33 0 7 -10 14 -22 17 -21 6 -21 7 -3 27 20 22 14 26 -16 10
-13 -7 -19 -7 -19 0 0 5 7 10 15 10 8 0 15 5 15 10 0 17 12 11 39 -18z m428
-87 c0 -8 -5 -11 -10 -8 -6 3 -7 1 -3 -5 4 -7 15 -12 24 -13 14 0 13 -2 -3 -9
-14 -5 -24 -3 -32 8 -12 14 -13 14 -13 -1 0 -20 -15 -23 -26 -5 -5 8 -9 6 -14
-6 -5 -16 -8 -15 -25 5 -18 20 -18 22 -2 16 9 -4 17 -2 17 4 0 5 6 9 13 8 6
-1 19 0 27 4 8 3 22 8 30 10 8 3 15 6 16 6 0 1 1 -6 1 -14z m-139 -35 c3 -20
1 -23 -9 -13 -9 9 -16 10 -26 2 -10 -9 -13 -7 -13 8 0 42 43 44 48 3z m254
-66 c83 -5 108 -10 113 -22 3 -8 1 -20 -4 -25 -17 -17 -172 -13 -284 7 -106
19 -110 19 -205 1 -105 -21 -256 -25 -272 -9 -6 6 -8 18 -5 26 5 13 18 15 63
12 31 -3 91 2 132 10 75 15 200 15 462 0z"/>
<path d="M694 1006 c-10 -26 1 -51 21 -51 37 0 29 64 -8 65 -4 0 -10 -6 -13
-14z m32 -32 c-5 -13 -10 -14 -18 -6 -6 6 -8 18 -4 28 5 13 10 14 18 6 6 -6 8
-18 4 -28z"/>
<path d="M575 990 c12 -41 27 -60 20 -25 -4 17 -11 35 -17 40 -7 7 -8 2 -3
-15z"/>
<path d="M628 1005 c-12 -13 5 -55 23 -55 23 0 29 11 22 38 -5 20 -32 30 -45
17z m32 -35 c0 -5 -4 -10 -10 -10 -5 0 -10 5 -10 10 0 6 5 10 10 10 6 0 10 -4
10 -10z"/>
<path d="M767 980 c3 -14 7 -26 7 -27 1 -1 7 11 13 27 9 25 9 28 -8 27 -14 -1
-17 -7 -12 -27z"/>
<path d="M817 1003 c-4 -3 1 -15 10 -26 17 -19 17 -20 1 -14 -10 4 -18 2 -18
-3 0 -6 9 -10 20 -10 23 0 26 19 8 39 -10 11 -10 13 0 7 6 -4 12 -2 12 3 0 12
-23 15 -33 4z"/>
<path d="M517 993 c-3 -5 1 -19 9 -33 7 -14 13 -18 14 -10 0 11 3 11 12 2 21
-21 27 -13 16 20 -6 18 -13 27 -16 20 -3 -9 -7 -10 -17 -2 -7 6 -15 7 -18 3z"/>
<path d="M915 990 c-4 -6 -1 -18 7 -27 11 -15 11 -16 -4 -10 -10 3 -18 2 -18
-3 0 -14 37 -12 46 2 4 6 2 14 -4 16 -7 2 -12 8 -12 13 0 6 5 7 10 4 6 -3 10
-1 10 4 0 14 -27 14 -35 1z"/>
<path d="M456 970 c6 -24 6 -25 -13 -7 -26 23 -57 13 -43 -13 5 -10 18 -17 27
-16 10 2 12 1 6 -1 -12 -4 -19 -23 -9 -23 16 0 36 14 36 26 0 12 4 12 20 2 10
-7 22 -9 26 -6 9 10 -4 58 -17 58 -6 0 -6 -7 1 -21 7 -11 8 -24 4 -27 -4 -4
-9 -2 -11 4 -2 6 -11 20 -19 30 -14 18 -15 18 -8 -6z"/>
<path d="M972 978 c-21 -21 -15 -48 11 -47 16 1 18 2 5 6 -10 2 -18 8 -18 13
0 12 26 31 33 23 4 -3 7 -1 7 5 0 16 -23 15 -38 0z"/>
<path d="M1022 956 c-7 -16 -10 -31 -7 -34 3 -3 5 0 5 6 0 7 7 12 15 12 9 0
12 -6 9 -17 -4 -10 3 -5 15 12 11 16 17 32 14 35 -3 3 -8 -1 -10 -7 -7 -18
-21 -16 -25 4 -2 12 -6 10 -16 -11z"/>
<path d="M364 945 c5 -15 4 -16 -9 -5 -23 19 -29 5 -10 -24 16 -23 45 -26 45
-4 0 5 6 6 13 2 7 -5 6 2 -4 16 -20 30 -45 41 -35 15z"/>
<path d="M1086 944 c-33 -33 -7 -66 28 -35 17 15 18 15 15 -4 -3 -14 2 -21 19
-23 12 -2 22 -8 22 -13 0 -5 8 -9 18 -9 13 0 14 2 4 9 -10 6 -10 10 3 21 8 7
15 17 15 23 0 6 -3 7 -7 4 -3 -4 -11 1 -18 9 -9 13 -16 14 -32 6 -17 -10 -22
-8 -26 8 -6 24 -20 25 -41 4z m30 -23 c-8 -13 -36 -15 -36 -3 0 4 5 13 12 20
14 14 34 0 24 -17z m50 -19 c-8 -9 -19 -13 -22 -9 -10 9 16 38 28 31 6 -4 4
-13 -6 -22z"/>
<path d="M316 915 c10 -15 12 -25 5 -25 -6 0 -16 9 -23 20 -7 11 -16 20 -21
20 -4 0 0 -12 10 -27 l17 -28 -25 23 c-30 27 -41 28 -32 5 6 -16 5 -16 -10 -4
-28 22 -33 3 -7 -24 22 -23 24 -23 37 -7 8 9 12 12 9 5 -5 -9 2 -9 26 0 18 6
35 13 37 14 7 5 -22 53 -31 53 -5 0 -1 -11 8 -25z"/>
<path d="M1040 329 c0 -5 5 -7 10 -4 6 3 10 8 10 11 0 2 -4 4 -10 4 -5 0 -10
-5 -10 -11z"/>
<path d="M995 300 c-3 -5 1 -10 9 -10 8 0 18 5 21 10 3 6 -1 10 -9 10 -8 0
-18 -4 -21 -10z"/>
<path d="M970 280 c0 -6 7 -10 15 -10 8 0 15 2 15 4 0 2 -7 6 -15 10 -8 3 -15
1 -15 -4z"/>
<path d="M425 300 c-3 -5 1 -10 9 -10 9 0 16 5 16 10 0 6 -4 10 -9 10 -6 0
-13 -4 -16 -10z"/>
<path d="M460 265 c0 -9 6 -12 17 -8 12 5 14 3 8 -7 -5 -8 -4 -11 3 -6 15 9 4
36 -14 36 -8 0 -14 -7 -14 -15z"/>
<path d="M659 846 c12 -15 12 -19 -2 -33 -14 -15 -13 -19 18 -49 34 -33 75
-38 75 -8 0 8 4 14 9 14 5 0 12 8 15 17 9 22 -16 45 -51 47 -15 1 -39 8 -53
16 -23 12 -24 12 -11 -4z m106 -55 c-6 -5 -25 10 -25 20 0 5 6 4 14 -3 8 -7
12 -15 11 -17z"/>
<path d="M633 636 c-39 -11 -74 -24 -78 -27 -3 -4 11 -10 32 -13 21 -4 50 -9
66 -12 22 -5 27 -2 27 14 0 11 7 23 16 26 21 8 33 -2 15 -13 -18 -11 -6 -30
26 -42 20 -7 45 -3 109 18 46 15 82 28 80 30 -4 4 -204 43 -214 42 -4 -1 -39
-11 -79 -23z"/>
<path d="M617 563 c-8 -8 64 -52 76 -46 16 9 6 41 -15 47 -30 8 -53 8 -61 -1z"/>
<path d="M765 553 c-17 -2 -36 -13 -43 -23 -11 -18 -9 -20 22 -20 60 0 97 11
94 29 -3 17 -23 21 -73 14z"/>
<path d="M952 508 c-7 -7 -12 -17 -12 -24 0 -7 -6 -15 -12 -17 -7 -3 -3 -6 9
-6 15 -1 28 9 38 29 12 24 13 30 2 30 -7 0 -18 -5 -25 -12z"/>
<path d="M506 453 c33 -32 68 -65 79 -73 19 -14 19 -14 5 4 -42 55 -115 126
-129 126 -9 0 9 -24 45 -57z"/>
<path d="M690 481 c0 -11 38 -21 56 -14 26 10 14 23 -21 23 -19 0 -35 -4 -35
-9z"/>
<path d="M626 444 c-4 -9 -4 -19 -2 -21 8 -8 26 8 26 23 0 19 -16 18 -24 -2z"/>
<path d="M787 443 c-13 -12 -7 -23 13 -23 11 0 20 7 20 15 0 15 -21 21 -33 8z"/>
<path d="M703 433 c-23 -9 -14 -33 11 -33 29 0 44 19 25 31 -15 10 -18 10 -36
2z"/>
<path d="M894 415 c-24 -37 -10 -42 16 -6 12 17 17 31 11 31 -6 0 -18 -11 -27
-25z"/>
<path d="M768 393 c-9 -2 -19 -10 -21 -17 -6 -16 29 -10 39 6 8 12 3 15 -18
11z"/>
<path d="M660 380 c20 -13 33 -13 25 0 -3 6 -14 10 -23 10 -15 0 -15 -2 -2
-10z"/>
<path d="M658 338 c9 -9 15 -9 24 0 9 9 7 12 -12 12 -19 0 -21 -3 -12 -12z"/>
<path d="M1365 200 c-16 -4 -25 -9 -20 -10 6 -1 -5 -7 -24 -14 -46 -16 -49
-30 -9 -47 32 -13 32 -13 8 -21 l-25 -7 25 1 c14 1 33 -3 43 -7 38 -16 25 3
-18 26 -25 13 -45 26 -45 29 0 3 21 14 46 25 25 11 48 23 50 28 3 4 4 6 2 6
-2 -1 -16 -5 -33 -9z"/>
<path d="M213 173 c9 -2 25 -2 35 0 9 3 1 5 -18 5 -19 0 -27 -2 -17 -5z"/>
</g>
</svg>
