<?xml version="1.0" standalone="no"?>
<!DOCTYPE svg PUBLIC "-//W3C//DTD SVG 20010904//EN"
 "http://www.w3.org/TR/2001/REC-SVG-20010904/DTD/svg10.dtd">
<svg version="1.0" xmlns="http://www.w3.org/2000/svg"
 width="100.000000pt" height="100.000000pt" viewBox="0 0 100.000000 100.000000"
 preserveAspectRatio="xMidYMid meet">

<g transform="translate(0.000000,100.000000) scale(0.100000,-0.100000)"
fill="#000000" stroke="none">
<path d="M411 844 c-201 -73 -297 -296 -207 -485 40 -86 43 -87 134 -43 1 0
-13 26 -32 58 -43 72 -52 129 -31 202 50 173 265 240 412 128 105 -80 123
-252 36 -354 l-24 -30 45 -22 c45 -22 46 -22 61 -2 30 40 57 106 64 159 22
158 -58 308 -199 374 -70 32 -191 40 -259 15z m59 -24 c0 -5 -7 -7 -15 -4 -10
4 -15 0 -15 -15 0 -12 5 -21 10 -21 6 0 10 5 10 11 0 6 6 9 14 6 10 -4 12 0 9
14 -3 10 0 19 6 19 6 0 11 -9 11 -20 0 -11 4 -20 10 -20 5 0 14 9 20 20 13 25
45 26 59 3 9 -16 10 -16 11 -1 0 11 6 15 20 11 14 -4 18 -13 17 -34 -2 -24 -5
-28 -22 -23 -11 4 -21 10 -23 13 -3 7 -55 6 -118 -4 -35 -5 -45 -3 -50 10 -4
8 -1 22 6 30 14 17 40 20 40 5z m-81 -31 c-9 -6 -10 -9 -2 -9 6 0 10 -8 9 -17
-2 -10 -8 -18 -15 -18 -6 0 -15 -6 -20 -13 -12 -20 -46 -10 -46 13 0 15 7 20
28 20 20 -1 26 3 22 14 -6 16 14 33 28 24 5 -3 3 -9 -4 -14z m281 6 c0 -9 6
-12 18 -8 13 5 12 1 -5 -16 -29 -28 -33 -27 -33 9 0 17 5 30 10 30 6 0 10 -7
10 -15z m66 -67 c-3 -18 -3 -27 0 -20 8 17 39 15 54 -3 8 -9 8 -15 2 -15 -6 0
-12 5 -14 12 -2 6 -10 8 -17 4 -7 -5 -10 -14 -7 -22 9 -24 -8 -15 -29 15 -10
16 -23 27 -27 25 -4 -3 -8 -1 -8 4 0 7 32 28 48 31 2 1 1 -14 -2 -31z m-442
-14 c22 -8 20 -24 -7 -58 -24 -30 -57 -32 -57 -3 0 10 39 67 46 67 1 0 9 -3
18 -6z m516 -57 c0 -7 -6 -19 -12 -26 -11 -11 -8 -12 15 -7 24 6 27 4 27 -19
0 -14 -6 -25 -12 -26 -7 0 -3 -4 10 -9 22 -9 31 -40 11 -40 -5 0 -8 4 -5 8 2
4 -4 8 -15 8 -26 0 -18 -20 9 -24 28 -4 28 -15 0 -36 -13 -8 -16 -13 -7 -10
10 3 20 1 24 -5 4 -7 -5 -11 -24 -11 -34 0 -39 11 -15 34 13 14 13 16 1 16
-11 0 -14 10 -13 35 1 19 -2 35 -6 35 -5 0 -8 9 -8 19 0 11 -5 23 -10 26 -6 4
-8 11 -5 16 4 5 0 9 -7 10 -7 0 -4 4 7 9 29 12 35 12 35 -3z m-560 -37 c11 -7
9 -11 -13 -19 -35 -13 -37 -13 -37 -1 0 6 8 10 18 10 14 0 15 2 2 10 -13 9
-13 10 0 10 8 0 22 -4 30 -10z m-4 -57 c-4 -16 -7 -36 -7 -45 0 -12 -8 -18
-25 -18 -33 0 -35 40 -1 41 l22 0 -22 11 c-32 15 -29 30 5 22 21 -4 24 -3 12
5 -13 9 -12 11 4 11 15 0 17 -5 12 -27z m-24 -86 c9 -7 20 -25 23 -39 5 -21 2
-26 -16 -31 -30 -8 -45 14 -22 31 16 11 16 12 0 12 -10 0 -17 8 -17 20 0 23 8
25 32 7z m628 -48 c0 -5 -8 -9 -17 -10 -11 0 -13 -3 -5 -6 6 -2 12 -9 12 -14
0 -10 -49 22 -50 32 0 3 14 6 30 7 17 0 30 -4 30 -9z"/>
<path d="M550 805 c0 -8 5 -15 10 -15 6 0 10 7 10 15 0 8 -4 15 -10 15 -5 0
-10 -7 -10 -15z"/>
<path d="M330 745 c7 -9 15 -13 17 -11 7 7 -7 26 -19 26 -6 0 -6 -6 2 -15z"/>
<path d="M252 678 c-16 -16 -15 -25 4 -32 12 -5 15 -2 10 9 -4 10 2 19 17 25
21 8 21 9 2 9 -12 1 -26 -4 -33 -11z"/>
<path d="M805 600 c-3 -5 -2 -10 4 -10 5 0 13 5 16 10 3 6 2 10 -4 10 -5 0
-13 -4 -16 -10z"/>
<path d="M483 708 c-47 -18 -52 -23 -47 -44 3 -13 7 -35 8 -49 0 -14 5 -25 9
-25 5 0 6 18 2 40 -6 33 -4 39 8 34 9 -3 13 -13 10 -25 -4 -15 0 -19 19 -19
13 0 28 -4 34 -10 14 -14 85 21 81 40 -2 8 10 22 26 31 l30 16 -49 12 c-27 7
-56 14 -64 16 -8 2 -39 -6 -67 -17z"/>
<path d="M407 324 c-58 -14 -217 -90 -217 -103 0 -4 15 -22 33 -39 l34 -33 62
30 c134 63 272 62 409 -4 l70 -33 32 33 32 33 -31 23 c-16 12 -28 25 -26 29 3
4 -1 7 -8 7 -6 -1 -33 9 -58 21 -108 51 -221 63 -332 36z m53 -55 c0 -15 -18
-19 -23 -6 -3 8 1 14 9 14 8 0 14 -4 14 -8z m106 -1 c4 -5 -16 -8 -44 -8 -29
0 -52 3 -52 8 0 10 86 9 96 0z m74 -10 c0 -4 -14 -8 -31 -8 -17 0 -28 4 -24
10 7 11 55 9 55 -2z m-220 -8 c0 -5 -7 -10 -15 -10 -8 0 -15 5 -15 10 0 6 7
10 15 10 8 0 15 -4 15 -10z m-54 -15 c-11 -8 -22 -12 -25 -9 -6 6 19 24 34 24
6 -1 1 -7 -9 -15z m344 -3 c0 4 13 2 30 -3 16 -6 27 -15 24 -20 -3 -5 -15 -2
-27 6 -12 8 -26 14 -32 14 -5 0 -11 5 -13 13 -2 9 0 8 7 -2 6 -8 11 -12 11 -8z
m-438 -31 c8 11 9 11 6 1 -4 -16 -22 -18 -24 -2 -2 7 -1 6 3 -1 4 -8 8 -7 15
2z"/>
<path d="M415 203 c-37 -9 -37 -21 2 -34 50 -16 168 -14 218 4 l40 14 -40 12
c-39 11 -180 13 -220 4z"/>
<path d="M95 160 c3 -5 8 -10 11 -10 2 0 4 5 4 10 0 6 -5 10 -11 10 -5 0 -7
-4 -4 -10z"/>
<path d="M279 142 l-24 -20 27 -7 c14 -4 33 -5 42 -3 13 3 13 6 -3 26 l-17 23
-25 -19z"/>
<path d="M725 130 c-18 -20 -17 -20 18 -20 42 0 56 15 28 29 -26 14 -25 14
-46 -9z"/>
</g>
</svg>
