<?xml version="1.0" standalone="no"?>
<!DOCTYPE svg PUBLIC "-//W3C//DTD SVG 20010904//EN"
 "http://www.w3.org/TR/2001/REC-SVG-20010904/DTD/svg10.dtd">
<svg version="1.0" xmlns="http://www.w3.org/2000/svg"
 width="100.000000pt" height="66.000000pt" viewBox="0 0 100.000000 66.000000"
 preserveAspectRatio="xMidYMid meet">

<g transform="translate(0.000000,66.000000) scale(0.100000,-0.100000)"
fill="#000000" stroke="none">
<path d="M571 603 c-1 -27 -4 -30 -23 -25 -16 4 -20 2 -15 -10 8 -23 -4 -30
-23 -13 -9 8 -25 12 -38 8 -27 -7 -29 -23 -2 -23 10 0 24 -9 31 -21 10 -19 8
-20 -10 -14 -24 7 -26 2 -11 -26 9 -15 7 -19 -6 -19 -10 0 -14 6 -11 14 3 8
-2 16 -13 19 -25 7 -30 -1 -20 -28 6 -16 5 -25 -2 -27 -6 -2 -8 -10 -4 -16 4
-8 16 -10 28 -6 16 5 19 2 16 -12 -2 -12 -15 -21 -33 -24 l-30 -5 0 -78 c1
-46 6 -82 13 -89 18 -18 15 -23 -12 -26 -19 -1 -26 4 -28 21 -3 20 -5 20 -20
-9 -13 -23 -27 -33 -52 -38 -55 -10 -51 -23 11 -42 47 -15 92 -18 230 -18 114
0 177 4 184 11 12 12 16 154 5 172 -18 29 -23 106 -10 144 25 72 15 111 -22
81 -18 -14 -18 -15 4 -4 15 7 22 7 22 0 0 -5 -5 -10 -11 -10 -7 0 -9 -10 -7
-25 3 -14 -1 -33 -9 -42 -9 -12 -12 -13 -8 -3 4 8 -3 4 -14 -10 -11 -14 -21
-33 -21 -42 0 -26 -18 -31 -32 -8 -7 11 -23 20 -35 20 -13 0 -23 5 -23 11 0 5
4 8 9 4 5 -3 12 -1 15 4 3 5 15 7 25 4 16 -4 19 -1 14 16 -3 12 -12 21 -19 21
-8 0 -14 5 -14 10 0 6 7 10 15 10 8 0 15 -4 15 -10 0 -5 5 -10 10 -10 16 0 11
30 -10 60 -11 15 -17 30 -13 34 3 3 -1 6 -9 6 -10 0 -19 -14 -24 -37 -4 -24
-9 -31 -11 -20 -3 10 -12 16 -21 15 -27 -5 -25 28 3 55 20 18 26 31 22 53 l-4
29 -2 -32z m9 -163 c0 -5 -7 -7 -15 -4 -8 4 -12 10 -9 15 6 11 24 2 24 -11z
m-79 -13 c25 -13 36 -47 15 -47 -18 0 -41 18 -33 26 4 4 2 13 -4 21 -14 16 -8
17 22 0z m-57 -106 c-6 -6 -11 1 -18 29 l-7 25 15 -25 c8 -14 12 -27 10 -29z
m48 27 c-1 -11 5 -13 26 -10 18 2 33 -2 41 -12 15 -18 1 -22 -16 -5 -9 9 -22
6 -53 -10 -22 -11 -48 -21 -58 -20 -14 0 -14 2 -2 6 27 10 50 41 43 59 -4 12
-2 15 8 12 8 -3 13 -12 11 -20z m95 -60 c-3 -7 -5 -2 -5 12 0 14 2 19 5 13 2
-7 2 -19 0 -25z m-62 12 c-3 -5 -12 -10 -18 -10 -7 0 -6 4 3 10 19 12 23 12
15 0z m135 -59 c-6 -24 -17 -41 -25 -41 -8 0 -15 -4 -15 -10 0 -5 -9 -10 -20
-10 -11 0 -20 3 -20 8 1 15 27 41 35 34 4 -4 4 7 1 24 -9 41 18 74 41 51 12
-12 12 -22 3 -56z m60 -20 c15 -28 13 -81 -3 -81 -13 0 -15 5 -18 55 -1 14 -5
25 -10 25 -9 0 -13 -15 -10 -33 1 -5 -3 -6 -9 -2 -6 3 -9 9 -7 13 2 4 7 15 10
25 8 23 34 22 47 -2z m-340 -91 c0 -5 -7 -10 -16 -10 -8 0 -12 5 -9 10 3 6 10
10 16 10 5 0 9 -4 9 -10z m270 -10 c0 -5 -2 -10 -4 -10 -3 0 -8 5 -11 10 -3 6
-1 10 4 10 6 0 11 -4 11 -10z"/>
<path d="M382 551 c-11 -6 -10 -9 5 -13 23 -6 45 1 37 13 -7 11 -25 11 -42 0z"/>
<path d="M310 500 c0 -5 5 -10 11 -10 5 0 7 5 4 10 -3 6 -8 10 -11 10 -2 0 -4
-4 -4 -10z"/>
<path d="M386 455 c-18 -13 -18 -15 -2 -21 21 -8 44 12 31 25 -6 6 -17 4 -29
-4z"/>
<path d="M342 407 c-14 -16 1 -42 18 -32 16 10 8 -5 -27 -52 -16 -22 -33 -33
-48 -33 -23 0 -45 -24 -45 -49 0 -20 39 -11 45 9 4 11 10 18 15 15 11 -7 40 5
40 17 0 5 11 24 24 41 23 30 23 34 11 65 -16 36 -18 37 -33 19z"/>
<path d="M355 260 c-3 -5 1 -10 9 -10 9 0 16 5 16 10 0 6 -4 10 -9 10 -6 0
-13 -4 -16 -10z"/>
<path d="M10 25 c0 -14 4 -25 9 -25 4 0 6 11 3 25 -6 32 -12 32 -12 0z"/>
<path d="M80 30 c6 -11 16 -20 22 -20 6 0 3 9 -7 20 -23 25 -29 25 -15 0z"/>
<path d="M120 25 c0 -14 5 -25 10 -25 6 0 10 11 10 25 0 14 -4 25 -10 25 -5 0
-10 -11 -10 -25z"/>
<path d="M162 25 c6 -14 13 -23 16 -21 7 7 -9 46 -18 46 -5 0 -4 -11 2 -25z"/>
<path d="M210 25 c0 -14 4 -25 9 -25 12 0 19 21 13 38 -8 21 -22 13 -22 -13z"/>
<path d="M271 25 c0 -17 3 -24 6 -17 3 8 9 10 16 3 9 -6 12 -2 13 15 1 13 -2
24 -7 24 -5 0 -9 -6 -9 -12 0 -9 -4 -8 -10 2 -7 11 -10 8 -9 -15z"/>
<path d="M320 40 c0 -5 10 -15 23 -21 22 -12 22 -12 3 10 -21 23 -26 26 -26
11z"/>
<path d="M372 25 c0 -17 2 -22 5 -12 2 9 2 23 0 30 -3 6 -5 -1 -5 -18z"/>
<path d="M410 25 c0 -14 4 -25 9 -25 4 0 6 11 3 25 -6 32 -12 32 -12 0z"/>
<path d="M463 26 c7 -14 13 -23 15 -21 7 6 -9 45 -18 45 -4 0 -3 -11 3 -24z"/>
<path d="M524 39 c-3 -6 -1 -16 5 -22 8 -8 11 -5 11 11 0 24 -5 28 -16 11z"/>
<path d="M564 24 c-1 -13 2 -21 7 -18 11 6 12 31 2 37 -5 3 -9 -6 -9 -19z"/>
<path d="M590 25 c0 -14 5 -25 11 -25 5 0 7 5 4 10 -3 6 -2 10 4 10 6 0 8 7 5
15 -9 24 -24 17 -24 -10z"/>
<path d="M675 30 c10 -11 20 -18 23 -16 5 6 -23 36 -34 36 -4 0 1 -9 11 -20z"/>
<path d="M733 36 c4 -10 7 -22 7 -27 0 -5 4 -9 9 -9 12 0 2 38 -12 47 -7 4 -8
0 -4 -11z"/>
<path d="M770 25 c0 -14 5 -25 10 -25 6 0 10 11 10 25 0 14 -4 25 -10 25 -5 0
-10 -11 -10 -25z"/>
<path d="M808 26 c-3 -14 -1 -26 3 -26 5 0 9 5 9 11 0 8 4 8 13 1 9 -8 12 -4
13 14 1 13 -2 24 -7 24 -5 0 -9 -6 -9 -12 0 -10 -2 -10 -9 0 -6 10 -10 7 -13
-12z"/>
<path d="M860 31 c0 -11 4 -22 9 -25 4 -3 6 6 3 19 -5 30 -12 33 -12 6z"/>
<path d="M898 27 c-3 -19 -2 -25 4 -19 6 6 8 18 6 28 -3 14 -5 12 -10 -9z"/>
<path d="M932 25 c0 -17 2 -22 5 -12 2 9 2 23 0 30 -3 6 -5 -1 -5 -18z"/>
<path d="M950 24 c0 -14 4 -23 9 -20 5 3 7 15 4 26 -7 28 -13 25 -13 -6z"/>
<path d="M982 25 c0 -17 2 -22 5 -12 2 9 2 23 0 30 -3 6 -5 -1 -5 -18z"/>
</g>
</svg>
